<svg width="74" height="74" viewBox="0 0 74 74" fill="none" xmlns="http://www.w3.org/2000/svg">
<g clip-path="url(#clip0_37_38)">
<g clip-path="url(#clip1_37_38)">
<path d="M43.2525 2.31119L19.3729 19.9263C19.109 20.121 18.9418 20.402 18.9081 20.7077C18.8744 21.0134 18.9769 21.3186 19.1931 21.5562L33.0507 36.7862C33.483 37.2614 34.1074 37.5624 34.7863 37.6232C35.4652 37.6839 36.1432 37.4993 36.6709 37.11L58.5605 20.9628C59.0883 20.5735 59.4227 20.0113 59.4901 19.4C59.5576 18.7887 59.3526 18.1783 58.9202 17.7031L45.0626 2.47311C44.8464 2.2355 44.5342 2.08496 44.1948 2.0546C43.8553 2.02423 43.5163 2.11653 43.2525 2.31119ZM42.3244 5.99016L39.989 20.6543L23.5616 19.8309L42.3244 5.99016ZM56.9302 19.171L35.0406 35.3182L23.0365 22.1252L41.0228 23.0264C41.3444 23.0427 41.6612 22.9498 41.9103 22.766C42.1595 22.5821 42.323 22.3208 42.3685 22.0337L44.9261 5.97805L56.9302 19.171Z" fill="black"/>
</g>
<path d="M18.4997 24.5L34.4997 40.5L56.4997 24.5L67 32L35.9988 56.1288L5.99997 32.7188L18.4997 24.5Z" fill="black"/>
<path d="M7.5 57.9285L7.5 32.7172" stroke="black" stroke-width="3"/>
<line x1="65.501" y1="61.7133" x2="65.501" y2="32" stroke="black" stroke-width="3"/>
<line x1="35.4619" y1="49.2144" x2="35.4619" y2="66.322" stroke="black" stroke-width="3"/>
<path d="M10 37L33 55V72.5L10 58.5V37Z" fill="#D9D9D9"/>
</g>
<defs>
<clipPath id="clip0_37_38">
<rect width="74" height="74" fill="white"/>
</clipPath>
<clipPath id="clip1_37_38">
<rect width="39.5649" height="38.7594" fill="white" transform="matrix(0.804739 -0.593628 0.672995 0.739647 10.502 17.4868)"/>
</clipPath>
</defs>
</svg>
